# xmcd
# 
# Track frame offsets:
#     183
#     20728
#     33778
#     63635
#     78248
#     100373
#     123665
#     162588
#     175373
#     205068
#     226983
# 
# Disc length: 3105
# 
# Revision: 1
# Processed by: cddbd v1.5.2PL0 Copyright (c) Steve Scherf et al.
# Submitted via: BonkEnc v1.0.8
# 
DISCID=930c1f0b
DTITLE=Pippo Matino - Mike Stern - Bassa Tensione
DYEAR=1993
DGENRE=Fusion
TTITLE0=Doctor Mike
TTITLE1=An Idea
TTITLE2=Tensioni Pacifiche
TTITLE3=Bass-Song for Napoli
TTITLE4=No Smoking
TTITLE5=Song for Joe
TTITLE6=Teen Town (omaggio a Jaco Pastrius)
TTITLE7=Emotion
TTITLE8=Softly
TTITLE9=Tarantella for Jeff
TTITLE10=Heavy Bagary
EXTD=YEAR: 1993
EXTT0=
EXTT1=
EXTT2=
EXTT3=
EXTT4=
EXTT5=
EXTT6=
EXTT7=
EXTT8=
EXTT9=
EXTT10=
PLAYORDER=
